# Blender v2.78 (sub 0) OBJ File: ''
# www.blender.org
mtllib iceberg2.mtl
o Cube_Cube.001
v 6.306171 13.363794 -0.241669
v 0.595015 5.364529 5.257856
v -3.360044 17.463146 -4.317195
v -9.071199 9.463881 1.182330
v 7.199087 6.577234 -9.185697
v 1.487932 -1.422031 -3.686171
v -2.467127 10.676586 -13.261223
v -8.178284 2.677321 -7.761698
vn 0.0793 -0.6026 -0.7941
vn 0.8582 -0.3640 0.3619
vn -0.0793 0.6026 0.7941
vn -0.8582 0.3640 -0.3619
vn -0.5071 -0.7102 0.4883
vn 0.5071 0.7102 -0.4883
usemtl None
s off
f 1//1 2//1 4//1 3//1
f 3//2 4//2 8//2 7//2
f 7//3 8//3 6//3 5//3
f 5//4 6//4 2//4 1//4
f 3//5 7//5 5//5 1//5
f 8//6 4//6 2//6 6//6
o Icosphere
v 13.823448 3.683713 69.993889
v 14.547055 4.236494 70.519615
v 13.547060 4.236493 70.844536
v 12.929022 4.236497 69.993889
v 13.547060 4.236493 69.143242
v 14.547055 4.236494 69.468163
v 14.099836 5.130933 70.844536
v 13.099841 5.130932 70.519615
v 13.099841 5.130932 69.468163
v 14.099836 5.130933 69.143242
v 14.717875 5.130929 69.993889
v 13.823448 5.683713 69.993889
v 13.660993 3.833059 70.493881
v 14.248771 3.833059 70.302902
v 14.086317 4.157975 70.802902
v 14.674096 4.157977 69.993889
v 14.248771 3.833059 69.684875
v 13.297718 3.833061 69.993889
v 13.135259 4.157977 70.493889
v 13.660993 3.833059 69.493896
v 13.135259 4.157977 69.493889
v 14.086317 4.157975 69.184875
v 14.774506 4.683713 70.302902
v 14.774506 4.683713 69.684875
v 13.823448 4.683713 70.993889
v 14.411234 4.683713 70.802902
v 12.872391 4.683713 70.302902
v 13.235662 4.683713 70.802902
v 13.235662 4.683713 69.184875
v 12.872391 4.683713 69.684875
v 14.411234 4.683713 69.184875
v 13.823448 4.683713 68.993889
v 14.511638 5.209449 70.493889
v 13.560579 5.209451 70.802902
v 12.972800 5.209449 69.993889
v 13.560579 5.209451 69.184875
v 14.511638 5.209449 69.493889
v 13.985904 5.534368 70.493881
v 14.349178 5.534365 69.993889
v 13.398126 5.534367 70.302902
v 13.398126 5.534367 69.684875
v 13.985904 5.534368 69.493896
vn 0.1024 -0.9435 0.3151
vn 0.7002 -0.6617 0.2680
vn -0.2680 -0.9435 0.1947
vn -0.2680 -0.9435 -0.1947
vn 0.1024 -0.9435 -0.3151
vn 0.9050 -0.3304 0.2680
vn 0.0248 -0.3304 0.9435
vn -0.8897 -0.3304 0.3151
vn -0.5746 -0.3304 -0.7488
vn 0.5346 -0.3304 -0.7779
vn 0.8026 -0.1256 0.5831
vn -0.3066 -0.1256 0.9435
vn -0.9921 -0.1256 0.0000
vn -0.3066 -0.1256 -0.9435
vn 0.8026 -0.1256 -0.5831
vn 0.4089 0.6617 0.6284
vn -0.4713 0.6617 0.5831
vn -0.7002 0.6617 -0.2680
vn 0.0385 0.6617 -0.7488
vn 0.7240 0.6617 -0.1947
vn 0.2680 0.9435 -0.1947
vn 0.4911 0.7947 -0.3568
vn 0.4089 0.6617 -0.6284
vn -0.1024 0.9435 -0.3151
vn -0.1876 0.7947 -0.5773
vn -0.4713 0.6617 -0.5831
vn -0.3313 0.9435 0.0000
vn -0.6070 0.7947 0.0000
vn -0.7002 0.6617 0.2680
vn -0.1024 0.9435 0.3151
vn -0.1876 0.7947 0.5773
vn 0.0385 0.6617 0.7488
vn 0.2680 0.9435 0.1947
vn 0.4911 0.7947 0.3568
vn 0.7240 0.6617 0.1947
vn 0.8897 0.3304 -0.3151
vn 0.7946 0.1876 -0.5774
vn 0.5746 0.3304 -0.7488
vn -0.0247 0.3304 -0.9435
vn -0.3035 0.1876 -0.9342
vn -0.5346 0.3304 -0.7779
vn -0.9050 0.3304 -0.2680
vn -0.9822 0.1876 0.0000
vn -0.9050 0.3304 0.2680
vn -0.5346 0.3304 0.7779
vn -0.3035 0.1876 0.9342
vn -0.0248 0.3304 0.9435
vn 0.5746 0.3304 0.7488
vn 0.7946 0.1876 0.5774
vn 0.8897 0.3304 0.3151
vn 0.3066 0.1256 -0.9435
vn 0.3035 -0.1876 -0.9342
vn 0.0247 -0.3304 -0.9435
vn -0.8026 0.1256 -0.5831
vn -0.7946 -0.1876 -0.5774
vn -0.8897 -0.3304 -0.3151
vn -0.8026 0.1256 0.5831
vn -0.7946 -0.1876 0.5774
vn -0.5746 -0.3304 0.7488
vn 0.3066 0.1256 0.9435
vn 0.3035 -0.1876 0.9342
vn 0.5346 -0.3304 0.7779
vn 0.9921 0.1256 0.0000
vn 0.9822 -0.1876 0.0000
vn 0.9050 -0.3304 -0.2680
vn 0.4713 -0.6617 -0.5831
vn 0.1876 -0.7947 -0.5773
vn -0.0385 -0.6617 -0.7488
vn -0.4089 -0.6617 -0.6284
vn -0.4911 -0.7947 -0.3568
vn -0.7240 -0.6617 -0.1947
vn -0.7240 -0.6617 0.1947
vn -0.4911 -0.7947 0.3568
vn -0.4089 -0.6617 0.6284
vn 0.7002 -0.6617 -0.2680
vn 0.6070 -0.7947 0.0000
vn 0.3313 -0.9435 0.0000
vn -0.0385 -0.6617 0.7488
vn 0.1876 -0.7947 0.5773
vn 0.4713 -0.6617 0.5831
usemtl None
s off
f 9//7 22//7 21//7
f 10//8 22//8 24//8
f 9//9 21//9 26//9
f 9//10 26//10 28//10
f 9//11 28//11 25//11
f 10//12 24//12 31//12
f 11//13 23//13 33//13
f 12//14 27//14 35//14
f 13//15 29//15 37//15
f 14//16 30//16 39//16
f 10//17 31//17 34//17
f 11//18 33//18 36//18
f 12//19 35//19 38//19
f 13//20 37//20 40//20
f 14//21 39//21 32//21
f 15//22 41//22 46//22
f 16//23 42//23 48//23
f 17//24 43//24 49//24
f 18//25 44//25 50//25
f 19//26 45//26 47//26
f 47//27 50//27 20//27
f 47//28 45//28 50//28
f 45//29 18//29 50//29
f 50//30 49//30 20//30
f 50//31 44//31 49//31
f 44//32 17//32 49//32
f 49//33 48//33 20//33
f 49//34 43//34 48//34
f 43//35 16//35 48//35
f 48//36 46//36 20//36
f 48//37 42//37 46//37
f 42//38 15//38 46//38
f 46//39 47//39 20//39
f 46//40 41//40 47//40
f 41//41 19//41 47//41
f 32//42 45//42 19//42
f 32//43 39//43 45//43
f 39//44 18//44 45//44
f 40//45 44//45 18//45
f 40//46 37//46 44//46
f 37//47 17//47 44//47
f 38//48 43//48 17//48
f 38//49 35//49 43//49
f 35//50 16//50 43//50
f 36//51 42//51 16//51
f 36//52 33//52 42//52
f 33//53 15//53 42//53
f 34//54 41//54 15//54
f 34//55 31//55 41//55
f 31//56 19//56 41//56
f 39//57 40//57 18//57
f 39//58 30//58 40//58
f 30//59 13//59 40//59
f 37//60 38//60 17//60
f 37//61 29//61 38//61
f 29//62 12//62 38//62
f 35//63 36//63 16//63
f 35//64 27//64 36//64
f 27//65 11//65 36//65
f 33//66 34//66 15//66
f 33//67 23//67 34//67
f 23//68 10//68 34//68
f 31//69 32//69 19//69
f 31//70 24//70 32//70
f 24//71 14//71 32//71
f 25//72 30//72 14//72
f 25//73 28//73 30//73
f 28//74 13//74 30//74
f 28//75 29//75 13//75
f 28//76 26//76 29//76
f 26//77 12//77 29//77
f 26//78 27//78 12//78
f 26//79 21//79 27//79
f 21//80 11//80 27//80
f 24//81 25//81 14//81
f 24//82 22//82 25//82
f 22//83 9//83 25//83
f 21//84 23//84 11//84
f 21//85 22//85 23//85
f 22//86 10//86 23//86
