<?xml version="1.0" encoding="utf-8"?>
<!-- Generator: Adobe Illustrator 16.0.0, SVG Export Plug-In . SVG Version: 6.00 Build 0)  -->
<!DOCTYPE svg PUBLIC "-//W3C//DTD SVG 1.1//EN" "http://www.w3.org/Graphics/SVG/1.1/DTD/svg11.dtd">
<svg version="1.1" id="Capa_1" xmlns="http://www.w3.org/2000/svg" xmlns:xlink="http://www.w3.org/1999/xlink" x="0px" y="0px"
	 width="110.121px" height="109.262px" viewBox="6657.818 2235.826 110.121 109.262"
	 enable-background="new 6657.818 2235.826 110.121 109.262" xml:space="preserve">
<g>
	<g>
		<g>
			<path d="M6765.254,2305.883h-1.08v-4.744c4.275-4.327,3.789-12.047,3.708-13.025v-8.083c0-2.603-2.118-4.72-4.72-4.72h-0.182
				c-0.822,0-1.598,0.211-2.271,0.583c-0.865-1.087-2.199-1.784-3.693-1.784h-0.182c-0.797,0-1.555,0.195-2.221,0.549
				c-0.866-1.028-2.163-1.684-3.61-1.684h-0.181c-0.66,0-1.295,0.137-1.873,0.386c-0.846-1.279-2.297-2.125-3.941-2.125h-0.182
				c-2.603,0-4.72,2.117-4.72,4.72v4.549c-1.896-0.204-3.377,0.158-4.497,1.096c-2.43,2.033-2.185,6.067-1.948,9.969
				c0.323,5.326,5.07,9.794,6.899,11.327v2.987h-0.911c-0.959,0-1.737,0.777-1.737,1.737v8.937v26.793
				c0,0.96,0.778,1.737,1.737,1.737h25.605c0.96,0,1.737-0.777,1.737-1.737v-26.793v-8.937
				C6766.992,2306.661,6766.214,2305.883,6765.254,2305.883z M6737.129,2291.358c-0.167-2.756-0.375-6.186,0.71-7.094
				c0.403-0.338,1.193-0.424,2.268-0.256v2.359c0,0.96,0.777,1.737,1.737,1.737c0.959,0,1.737-0.777,1.737-1.737v-10.413
				c0-0.687,0.559-1.245,1.245-1.245h0.181c0.687,0,1.246,0.559,1.246,1.245v0.807v5.9c0,0.96,0.777,1.737,1.737,1.737
				c0.959,0,1.736-0.777,1.736-1.737v-5.557c0.215-0.398,0.631-0.655,1.095-0.655h0.182c0.687,0,1.245,0.559,1.245,1.246v0.245
				v4.722c0,0.959,0.778,1.737,1.737,1.737c0.96,0,1.737-0.778,1.737-1.737v-4.397c0.209-0.415,0.633-0.681,1.111-0.681h0.181
				c0.687,0,1.245,0.559,1.245,1.245v1.201v3.484c0,0.96,0.777,1.737,1.737,1.737s1.737-0.777,1.737-1.737v-3.484
				c0-0.687,0.559-1.245,1.246-1.245h0.182c0.686,0,1.244,0.559,1.244,1.245v8.159c0,0.056,0.003,0.111,0.008,0.166
				c0.201,2.077,0.034,8.047-3.101,10.701c-0.39,0.33-0.614,0.814-0.614,1.326v5.501h-16.664v-3.822c0-0.549-0.261-1.066-0.7-1.395
				C6743.275,2300.624,6737.423,2296.203,6737.129,2291.358z M6763.518,2341.613h-22.131v-23.319h22.131V2341.613z
				 M6763.518,2314.819h-22.131v-5.462h0.911h20.139h1.081V2314.819z"/>
			<path d="M6731.62,2264.083l7.948,3.356c0.572,0.242,1.176,0.363,1.779,0.363c0.584,0,1.167-0.113,1.723-0.339
				c1.134-0.46,2.02-1.334,2.494-2.46l0.968-2.289c0.476-1.126,0.483-2.37,0.024-3.503c-0.461-1.133-1.334-2.019-2.463-2.495
				l-9.435-3.965l0.437-1.578c0.006-0.021,0.011-0.041,0.016-0.062c0.291-1.227,0.088-2.493-0.574-3.566
				c-0.661-1.073-1.701-1.824-2.926-2.115l-0.178-0.043c-0.802-0.19-1.604-0.163-2.346,0.043c-0.591-1.257-1.728-2.244-3.182-2.59
				l-0.176-0.042c-0.774-0.184-1.556-0.169-2.285,0.021c-0.061-0.12-0.127-0.238-0.198-0.354c-0.661-1.073-1.701-1.824-2.927-2.116
				l-0.178-0.042c-0.641-0.152-1.289-0.167-1.907-0.058c-0.109-0.298-0.249-0.587-0.419-0.862c-0.662-1.073-1.701-1.825-2.931-2.117
				l-0.174-0.041c-1.227-0.291-2.493-0.087-3.566,0.574c-1.065,0.656-1.813,1.686-2.109,2.899l-0.31,1.149l-12.232-5.141
				c-0.007-0.003-0.013-0.004-0.02-0.007c-0.032-0.014-0.065-0.024-0.099-0.036c-0.022-0.007-0.044-0.015-0.066-0.021
				c-0.028-0.009-0.058-0.016-0.087-0.022c-0.029-0.006-0.058-0.014-0.087-0.019c-0.022-0.005-0.046-0.008-0.07-0.011
				c-0.035-0.006-0.071-0.01-0.106-0.013c-0.009-0.001-0.018-0.003-0.026-0.003l-11.633-0.749c-0.731-0.049-1.403,0.363-1.698,1.026
				c-0.296,0.664-0.147,1.442,0.373,1.95l8.177,7.986c0.003,0.003,0.006,0.005,0.009,0.008l0.004,0.004
				c0.004,0.005,0.01,0.009,0.015,0.014c0.033,0.032,0.069,0.063,0.106,0.093c0.018,0.015,0.036,0.027,0.054,0.042
				c0.021,0.015,0.039,0.03,0.06,0.044c0.005,0.004,0.011,0.006,0.016,0.01c0.029,0.02,0.061,0.038,0.091,0.056
				c0.222,0.142,0.453,0.27,0.694,0.371l7.44,3.142c-0.549,1.611-0.884,3.525-1.184,5.249c-0.949,5.446,2.937,11.095,4.243,12.808
				l0.006,7.898h-1.446c-0.96,0-1.737,0.778-1.737,1.738v8.937v56.146c0,0.96,0.777,1.737,1.737,1.737h25.605
				c0.959,0,1.737-0.777,1.737-1.737v-43.473c0-0.96-0.778-1.737-1.737-1.737c-0.96,0-1.737,0.777-1.737,1.737v41.735h-22.131
				v-52.671h22.131v2.896v1.93c0,0.96,0.777,1.737,1.737,1.737c0.959,0,1.737-0.777,1.737-1.737v-1.93v-4.633v-8.937
				c0-0.96-0.778-1.738-1.737-1.738h-0.729l0.016-4.487C6729.085,2270.1,6730.732,2266.724,6731.62,2264.083z M6740.84,2259.118
				l1.905,0.801c0.271,0.114,0.481,0.327,0.593,0.601c0.11,0.272,0.108,0.572-0.007,0.844l-0.966,2.289
				c-0.115,0.271-0.328,0.481-0.602,0.592c-0.272,0.111-0.572,0.109-0.844-0.006l-2.031-0.857L6740.84,2259.118z M6732.545,2260.4
				l1.181-4.271l3.909,1.643l-1.948,4.257l-3.188-1.347C6732.518,2260.564,6732.533,2260.47,6732.545,2260.4z M6691.852,2242.62
				l-3.094-3.021l4.395,0.283L6691.852,2242.62z M6694.701,2244.718l1.977-4.16l11.138,4.681l-1.213,4.506L6694.701,2244.718z
				 M6725.127,2285.468h-22.131v-5.463h22.131V2285.468L6725.127,2285.468z M6723.631,2269.497
				c-0.582,0.295-0.949,0.891-0.951,1.543l-0.019,5.313h-16.482l-0.007-8.325c0-0.407-0.145-0.804-0.406-1.115
				c-0.047-0.058-4.721-5.711-3.887-10.491c0.263-1.508,0.554-3.175,0.971-4.489l3.142,1.327c0.189,0.508,0.612,0.921,1.176,1.072
				c0.925,0.249,1.88-0.299,2.129-1.226l3.101-11.521c0.005-0.018,0.009-0.034,0.014-0.051c0.076-0.323,0.274-0.598,0.558-0.772
				s0.617-0.229,0.943-0.15l0.174,0.041c0.323,0.077,0.599,0.275,0.772,0.559c0.175,0.283,0.229,0.617,0.151,0.941l-0.177,0.743
				l-2.046,7.091c-0.267,0.922,0.265,1.885,1.188,2.151c0.16,0.046,0.323,0.068,0.482,0.068c0.754,0,1.448-0.496,1.668-1.256
				l1.978-6.852c0.299-0.356,0.775-0.521,1.236-0.41l0.178,0.042c0.324,0.077,0.599,0.275,0.773,0.559
				c0.171,0.278,0.225,0.605,0.153,0.925l-1.819,6.146c-0.273,0.92,0.252,1.887,1.172,2.159c0.164,0.048,0.331,0.072,0.494,0.072
				c0.749,0,1.441-0.489,1.665-1.245l1.685-5.69c0.294-0.401,0.795-0.594,1.289-0.476l0.176,0.042
				c0.668,0.159,1.082,0.831,0.924,1.499l-0.264,1.109l-1.48,4.721c-0.288,0.916,0.222,1.891,1.137,2.178
				c0.174,0.055,0.349,0.081,0.521,0.081c0.739,0,1.424-0.476,1.657-1.219l1.5-4.779c0.006-0.021,0.011-0.042,0.016-0.063
				c0.006-0.019,0.012-0.036,0.017-0.056c0.159-0.667,0.831-1.082,1.498-0.924l0.179,0.043c0.659,0.156,1.071,0.814,0.929,1.475
				l-2.569,9.29c-0.02,0.072-0.035,0.149-0.046,0.224C6729.109,2259.874,6728.021,2267.271,6723.631,2269.497z"/>
			<path d="M6692.182,2297.693v-8.082c0-2.603-2.117-4.72-4.721-4.72h-0.181c-0.823,0-1.598,0.212-2.271,0.583
				c-0.866-1.086-2.2-1.784-3.694-1.784h-0.181c-0.797,0-1.555,0.196-2.221,0.55c-0.866-1.029-2.163-1.684-3.61-1.684h-0.182
				c-0.66,0-1.294,0.136-1.872,0.386c-0.846-1.279-2.297-2.126-3.942-2.126h-0.181c-2.603,0-4.72,2.117-4.72,4.72v4.549
				c-1.896-0.204-3.377,0.158-4.497,1.097c-2.429,2.032-2.185,6.066-1.948,9.969c0.323,5.325,5.07,9.794,6.899,11.327v2.987h-0.911
				c-0.96,0-1.737,0.777-1.737,1.736v8.938v17.212c0,0.96,0.777,1.737,1.737,1.737h25.605c0.959,0,1.737-0.777,1.737-1.737v-17.212
				v-8.938c0-0.959-0.778-1.736-1.737-1.736h-1.081v-4.745C6692.748,2306.394,6692.262,2298.673,6692.182,2297.693z
				 M6687.816,2341.613h-22.131v-13.738h22.131V2341.613z M6687.816,2324.401h-22.131v-5.462h0.911h20.14h1.08V2324.401z
				 M6685.613,2308.638c-0.39,0.33-0.614,0.814-0.614,1.325v5.502h-16.665l0,0v-3.822c0-0.551-0.261-1.067-0.701-1.396
				c-1.644-1.219-5.959-5.267-6.204-9.308c-0.167-2.756-0.375-6.187,0.71-7.094c0.402-0.338,1.193-0.424,2.267-0.256v2.359
				c0,0.96,0.777,1.737,1.737,1.737s1.737-0.777,1.737-1.737v-10.413c0-0.688,0.559-1.246,1.245-1.246h0.182
				c0.688,0,1.246,0.559,1.246,1.246v0.806v5.9c0,0.96,0.777,1.737,1.737,1.737c0.959,0,1.737-0.777,1.737-1.737v-5.557
				c0.214-0.398,0.629-0.655,1.094-0.655h0.182c0.687,0,1.245,0.56,1.245,1.246v0.246v4.721c0,0.96,0.777,1.737,1.737,1.737
				c0.959,0,1.737-0.777,1.737-1.737v-4.397c0.209-0.414,0.633-0.681,1.11-0.681h0.182c0.687,0,1.245,0.559,1.245,1.245v1.201v3.484
				c0,0.96,0.777,1.737,1.737,1.737s1.737-0.777,1.737-1.737v-3.484c0-0.687,0.559-1.245,1.245-1.245h0.182
				c0.687,0,1.246,0.559,1.246,1.245v8.158c0,0.056,0.002,0.111,0.008,0.167C6688.915,2300.014,6688.748,2305.983,6685.613,2308.638
				z"/>
		</g>
	</g>
</g>
</svg>
