<?xml version="1.0" encoding="utf-8"?>
<!-- Generator: Adobe Illustrator 16.0.0, SVG Export Plug-In . SVG Version: 6.00 Build 0)  -->
<!DOCTYPE svg PUBLIC "-//W3C//DTD SVG 1.1//EN" "http://www.w3.org/Graphics/SVG/1.1/DTD/svg11.dtd">
<svg version="1.1" id="Capa_1" xmlns="http://www.w3.org/2000/svg" xmlns:xlink="http://www.w3.org/1999/xlink" x="0px" y="0px"
	 width="47.759px" height="39.799px" viewBox="6669.851 2258.465 47.759 39.799"
	 enable-background="new 6669.851 2258.465 47.759 39.799" xml:space="preserve">
<g>
	<path d="M6717.609,2262.177c0-1.141-0.76-1.9-1.898-1.9h-41.789c-1.139,0-1.898,0.76-1.898,1.9v3.797c0,1.141,0.76,1.9,1.898,1.9
		h41.789c1.139,0,1.898-0.76,1.898-1.9V2262.177z"/>
	<path d="M6717.609,2277.37c0-1.139-0.76-1.898-1.898-1.898h-41.789c-1.139,0-1.898,0.76-1.898,1.898v3.799
		c0,1.141,0.76,1.899,1.898,1.899h41.789c1.139,0,1.898-0.76,1.898-1.899V2277.37z"/>
	<path d="M6717.609,2292.566c0-1.139-0.76-1.9-1.898-1.9h-41.789c-1.139,0-1.898,0.762-1.898,1.9v3.799
		c0,1.139,0.76,1.898,1.898,1.898h41.789c1.139,0,1.898-0.76,1.898-1.898V2292.566z"/>
</g>
</svg>
